PathFileType	4	(X/Y/Z)	Walk8.trc
DataRate	CameraRate	NumFrames	NumMarkers	Units	OrigDataRate	OrigDataStartFrame	OrigNumFrames
200.000000	200.000000	4	59	mm	200.000000	450	625
Frame#	Times		LFHD		RFHD		CLAV		STRN		LASI		RASI		RACR1		RUA1		RElbow		RFA1		RWRR		RWRU		RCAR		LACR1		LUA1		LElbow		LFA1		LWRR		RTB1		RTB2		LTH1		LTH3		LTH2		LMFC		LTB1		LTB2		LMT1		RTH2		LTB4		LLFC		LCAR		LWRU		LTB3		LMT5		LToe		RTB4		RTH3		RTB3		RMFC		LTH4		RTH1		RTH4		RMMAL		RBHD		RElbowM		RLFC		RToe		RBack		RMT1		RCAL		LLMAL		LElbowM		LMMAL		RPSI		C7		T10		LPSI		LBHD		LCAL
			X1	Y1	Z1	X2	Y2	Z2	X3	Y3	Z3	X4	Y4	Z4	X5	Y5	Z5	X6	Y6	Z6	X7	Y7	Z7	X8	Y8	Z8	X9	Y9	Z9	X10	Y10	Z10	X11	Y11	Z11	X12	Y12	Z12	X13	Y13	Z13	X14	Y14	Z14	X15	Y15	Z15	X16	Y16	Z16	X17	Y17	Z17	X18	Y18	Z18	X19	Y19	Z19	X20	Y20	Z20	X21	Y21	Z21	X22	Y22	Z22	X23	Y23	Z23	X24	Y24	Z24	X25	Y25	Z25	X26	Y26	Z26	X27	Y27	Z27	X28	Y28	Z28	X29	Y29	Z29	X30	Y30	Z30	X31	Y31	Z31	X32	Y32	Z32	X33	Y33	Z33	X34	Y34	Z34	X35	Y35	Z35	X36	Y36	Z36	X37	Y37	Z37	X38	Y38	Z38	X39	Y39	Z39	X40	Y40	Z40	X41	Y41	Z41	X42	Y42	Z42	X43	Y43	Z43	X44	Y44	Z44	X45	Y45	Z45	X46	Y46	Z46	X47	Y47	Z47	X48	Y48	Z48	X49	Y49	Z49	X50	Y50	Z50	X51	Y51	Z51	X52	Y52	Z52	X53	Y53	Z53	X54	Y54	Z54	X55	Y55	Z55	X56	Y56	Z56	X57	Y57	Z57	X58	Y58	Z58	X59	Y59	Z59

450	2.25	620.26	1675.4	111.4	623.79	1669.1	12.59	634.4	1414.8	78.79	707.28	1259	74.728	570.79	998.74	-109.65	610.45	992.44	259.33	520.77	1497.5	248.6	492.88	1332.3	368.91	498.37	1183.4	418.76	528.87	1032.5	430.29	544.55	915.2	358.49	543.45	919.55	440.05	569.92	832.99	403.79	515.08	1472.1	-104.08	490.62	1298.1	-191.22	495.24	1134	-243.08	533.85	998.69	-255.84	598.42	882.02	-197.06	640.47	380.86	162.22	608.1	292.77	210.88	543.06	770.1	-143.97	576.94	601.75	-145.62	615.13	697.89	-127.6	592.53	505.75	10.031	561.89	388.78	-84.573	474.72	341.48	-115.39	358.72	69.5	-25.734	615.66	715.22	255.88	506.04	329.4	-62.556	559.21	523.78	-145.91	620.13	797.3	-230.35	556.11	859.96	-254.97	442.19	272.36	-43.221	301.83	97.865	-91.867	392.63	43.195	-71.664	623.63	296.24	151.44	582.52	615.64	255.06	607.09	212.52	140.53	574.75	505.94	88.944	558.96	687.12	-145.91	537.72	779.69	284.14	560.78	697.27	269.24	550.83	83.359	78.383	478.51	1581.9	-0.4132	439.48	1114.4	325.5	586.18	499.14	244.8	723.94	30.863	145.21	377.91	1374.6	197.11	678.43	26.315	111.79	456.99	48.065	118.84	270.87	209.83	-34.609	437.55	1071.8	-149.89	305.43	200.1	47.982	336.5	1035.7	128.64	438.1	1489.2	78.086	376.22	1173.8	87.399	339.94	1039.4	43.557	489.22	1597.2	148.01	221.65	219.74	28.223
451	2.255	626.32	1676.3	111.58	629.89	1669.9	12.77	640.25	1415.8	78.897	713.14	1260	74.822	577.09	999.56	-109.44	615.97	993.82	259.43	526.44	1498.5	248.7	498.88	1333.3	369.16	505.19	1184.5	419.26	536.95	1034	430.67	553.66	916.81	358.75	552.57	921.15	440.36	579.75	834.79	404.08	520.97	1473.1	-103.98	495.36	1299.2	-191.03	498.39	1135	-242.77	535.68	999.4	-255.64	599.29	882.09	-196.97	641.26	380.57	162.36	608.59	292.58	210.98	551.29	771.52	-143.56	587.02	603.54	-144.88	624.21	700.07	-127.07	603.38	507.86	10.739	574.92	390.51	-84.019	488.63	341.69	-114.97	378.92	68.199	-26.431	618.96	714.97	255.97	520.19	330.08	-62.189	570.16	525.44	-145.04	619.84	796.94	-230.28	556.68	860.51	-254.86	457.39	271.82	-42.996	321.41	95.463	-92.54	413.58	43.064	-72.267	624.23	296	151.55	584.82	615.74	255.13	607.47	212.34	140.62	575.79	505.97	88.997	568.07	688.75	-145.31	541.7	780.21	284.33	563.9	697.58	269.34	550.88	83.329	78.378	484.5	1583	-0.29227	446.89	1115.1	325.81	587.45	499.1	244.85	723.98	30.849	145.31	383.68	1375.5	197.14	678.43	26.339	111.85	457.01	48.094	118.85	287.24	205.9	-34.714	440.46	1073.4	-149.35	321.87	196.72	47.892	342.19	1036.8	128.52	444	1490.2	78.161	382.15	1174.8	87.488	345.97	1040.3	43.334	495.16	1598.3	148.24	237.45	214.28	28.058
452	2.26	632.37	1677.1	111.72	635.98	1670.7	12.917	646.09	1416.7	78.988	719	1261	74.905	583.44	1000.4	-109.16	621.5	995.15	259.48	532.11	1499.4	248.8	504.85	1334.2	369.4	511.98	1185.5	419.76	545.04	1035.3	431.04	562.78	918.4	359	561.71	922.72	440.65	589.6	836.56	404.36	526.86	1474.1	-103.89	500.12	1300.2	-190.87	501.53	1136	-242.48	537.52	1000.1	-255.45	600.18	882.18	-196.88	642.06	380.29	162.47	609.09	292.38	211.06	559.44	772.89	-143.18	597	605.29	-144.1	633.19	702.2	-126.53	614.12	509.94	11.492	587.92	392.23	-83.429	502.58	341.85	-114.54	399.32	66.847	-27.125	622.26	714.7	256.04	534.38	330.72	-61.806	581.02	527.08	-144.13	619.59	796.62	-230.19	557.26	861.06	-254.75	472.69	271.21	-42.774	341.19	92.967	-93.212	434.7	42.928	-72.86	624.83	295.76	151.64	587.13	615.83	255.18	607.87	212.16	140.7	576.88	505.99	89.019	577.09	690.32	-144.7	545.68	780.7	284.49	567.04	697.86	269.41	550.94	83.293	78.365	490.49	1583.9	-0.18675	454.3	1115.7	326.11	588.72	499.07	244.88	724.03	30.833	145.4	389.44	1376.3	197.15	678.43	26.362	111.91	457.03	48.122	118.85	303.83	201.8	-34.843	443.35	1075	-148.84	338.51	193.18	47.773	347.88	1037.9	128.39	449.9	1491.1	78.225	388.08	1175.6	87.56	351.98	1041.2	43.094	501.1	1599.3	148.44	253.52	208.62	27.858
453	2.265	638.42	1677.9	111.83	642.07	1671.5	13.031	651.93	1417.6	79.064	724.85	1261.9	74.978	589.82	1001.1	-108.81	627.03	996.43	259.48	537.78	1500.3	248.88	510.82	1335.1	369.62	518.77	1186.5	420.26	553.12	1036.7	431.4	571.93	919.95	359.23	570.86	924.26	440.92	599.47	838.31	404.62	532.75	1475	-103.81	504.89	1301.3	-190.73	504.68	1137	-242.23	539.37	1000.8	-255.27	601.09	882.28	-196.8	642.87	380	162.57	609.61	292.19	211.12	567.51	774.22	-142.81	606.89	607.02	-143.29	642.07	704.29	-125.96	624.74	511.98	12.287	600.87	393.93	-82.806	516.57	341.94	-114.1	419.88	65.457	-27.816	625.56	714.41	256.07	548.6	331.33	-61.408	591.77	528.67	-143.18	619.37	796.33	-230.1	557.86	861.61	-254.62	488.07	270.53	-42.556	361.16	90.396	-93.882	455.97	42.8	-73.447	625.44	295.52	151.72	589.46	615.9	255.2	608.26	211.97	140.76	578.01	506	89.017	586.05	691.83	-144.07	549.66	781.14	284.64	570.17	698.12	269.46	551	83.253	78.344	496.48	1584.8	-0.09596	461.7	1116.2	326.4	590.01	499.02	244.89	724.07	30.815	145.5	395.2	1377	197.16	678.43	26.382	111.97	457.06	48.151	118.85	320.62	197.55	-34.994	446.22	1076.6	-148.37	355.36	189.5	47.626	353.56	1039	128.25	455.81	1492	78.283	393.99	1176.5	87.612	357.97	1042.1	42.836	507.05	1600.3	148.62	269.84	202.78	27.629
